<?xml version="1.0" encoding="UTF-8" standalone="no"?>
<!-- Created with Inkscape (http://www.inkscape.org/) --><svg
   xmlns:dc="http://purl.org/dc/elements/1.1/"
   xmlns:cc="http://creativecommons.org/ns#"
   xmlns:rdf="http://www.w3.org/1999/02/22-rdf-syntax-ns#"
   xmlns:svg="http://www.w3.org/2000/svg"
   xmlns="http://www.w3.org/2000/svg"
   xmlns:sodipodi="http://sodipodi.sourceforge.net/DTD/sodipodi-0.dtd"
   width="99.989998mm"
   height="19.206419mm"
   viewBox="0 0 99.989998 19.206419"
   version="1.1"
   id="svg855"   sodipodi:docname="arborator.text.svg">
  <defs
     id="defs849" />
  <sodipodi:namedview
     id="base"
     pagecolor="#501d7d"
     bordercolor="#666666"
     borderopacity="1.0"     showgrid="false"     fit-margin-top="0"
     fit-margin-left="0"
     fit-margin-right="0"
     fit-margin-bottom="0" />
  <metadata
     id="metadata852">
    <rdf:RDF>
      <cc:Work
         rdf:about="">
        <dc:format>image/svg+xml</dc:format>
        <dc:type
           rdf:resource="http://purl.org/dc/dcmitype/StillImage" />
        <dc:title></dc:title>
      </cc:Work>
    </rdf:RDF>
  </metadata>
  <g     id="layer1"
     transform="translate(-18.796667,-118.81941)">
    <g
       style="image-rendering:optimizeQuality;shape-rendering:geometricPrecision;text-rendering:geometricPrecision"
       id="g7121"
       transform="matrix(0.02114257,0,0,0.0205227,92.173768,49.994561)"     >
      <path
         class="fil1 str0"
         d="M -1952,3668 -3221.8483,4275.4799 -3470,4277 -1605,3486 Z"
         id="path9"
         style="fill:#501d7d;stroke:#7b4178;stroke-width:3"
         sodipodi:nodetypes="ccccc"
       />
      <path
         class="fil2 str1"
         d="m -2339,3389 c 124,-48 294,139 379,410 l -316,377 c -67,30 -54,31 -137,-229 -83,-259 -49,-510 74,-558 z"
         id="path11"
         style="fill:none;stroke:#dd137b;stroke-width:56;stroke-dasharray:56, 56"
       />
      <path
         class="fil1 str0"
         d="m -1806,3589 197.8483,-101.2198 -620.9378,787.4799 L -2483,4276 Z"
         id="path19"
         style="fill:#501d7d;stroke:#7b4178;stroke-width:3"
         sodipodi:nodetypes="ccccc"
       />
    </g>
    <path
       style="fill:#501d7d;stroke-width:0.02055216;image-rendering:optimizeQuality;shape-rendering:geometricPrecision;text-rendering:geometricPrecision"
       id="path21"
       d="m 54.774226,137.82031 h -1.911353 l 0.883743,-3.76105 h -2.116871 l -2.753989,3.76105 h -1.70583 l 7.008286,-9.57731 h 4.336505 c 0.965951,0 1.520859,0.20552 1.685277,0.61656 0.18497,0.45215 -0.123315,1.21258 -0.883743,2.26074 -0.534355,0.71933 -1.068713,1.29479 -1.644174,1.72638 -0.637116,0.4727 -1.294783,0.80154 -1.993558,0.96595 z m 2.795092,-6.6589 c 0.328835,-0.4727 0.431594,-0.80154 0.308282,-0.96595 -0.123314,-0.16442 -0.493252,-0.26718 -1.04816,-0.26718 h -2.157976 l -1.808591,2.46626 h 2.157976 c 0.575461,0 0.986504,-0.0411 1.253683,-0.14387 0.452147,-0.16442 0.86319,-0.53436 1.294786,-1.08926 z"
       class="fil1"     />
    <path
       style="fill:#501d7d;stroke-width:0.02055216;image-rendering:optimizeQuality;shape-rendering:geometricPrecision;text-rendering:geometricPrecision"
       id="path23"
       d="m 65.276377,135.16908 c -0.616567,0.84264 -1.212578,1.4592 -1.808591,1.84969 -0.822087,0.53436 -1.788036,0.80154 -2.938957,0.80154 h -4.603684 l 7.028838,-9.57731 h 4.315953 c 0.986504,0 1.582515,0.14387 1.829141,0.4316 0.328835,0.39049 0.102761,1.13036 -0.65767,2.19908 -0.369937,0.49325 -0.780981,0.90429 -1.212577,1.23313 -0.431594,0.32883 -0.986502,0.63711 -1.664724,0.92484 0.287732,0.24663 0.411043,0.53436 0.36994,0.86319 -0.04111,0.30829 -0.267178,0.73988 -0.657669,1.27424 z m 1.130369,-4.08988 c 0.575458,-0.76043 0.452146,-1.15092 -0.349388,-1.15092 h -2.610122 l -1.644174,2.26073 h 2.569019 c 0.390491,0 0.739879,-0.0822 1.027608,-0.22607 0.36994,-0.18497 0.719325,-0.4727 1.007057,-0.88374 z m -2.897855,3.94601 c 0.575461,-0.78098 0.4727,-1.17147 -0.328834,-1.17147 h -2.610125 l -1.685277,2.30184 h 2.569019 c 0.390491,0 0.739878,-0.0617 1.04816,-0.22607 0.369941,-0.18497 0.698776,-0.49326 1.007057,-0.9043 z"
       class="fil1"     />
    <path
       style="fill:#501d7d;stroke-width:0.02055216;image-rendering:optimizeQuality;shape-rendering:geometricPrecision;text-rendering:geometricPrecision"
       id="path25"
       d="m 76.107363,133.03165 c -1.315339,1.80859 -2.712884,3.14448 -4.192641,3.96657 -1.192024,0.69877 -2.425154,1.02761 -3.637732,1.02761 -0.637117,0 -1.130369,-0.0822 -1.479754,-0.24663 -0.554908,-0.24663 -0.801534,-0.71932 -0.739878,-1.37699 0.08221,-0.82209 0.65767,-1.95246 1.70583,-3.39111 1.007054,-1.37699 2.014111,-2.44571 3.021166,-3.24724 0.842639,-0.63712 1.726382,-1.10982 2.630675,-1.39755 0.678222,-0.20552 1.397548,-0.30828 2.137426,-0.30828 1.192025,0 1.931903,0.26718 2.219632,0.78098 0.226073,0.4316 0.164417,1.06871 -0.226073,1.91135 -0.287732,0.59602 -0.760431,1.35645 -1.438651,2.28129 z m -1.8908,0.0205 c 0.924848,-1.25368 1.356442,-2.15797 1.315339,-2.71288 -0.04111,-0.45215 -0.411043,-0.67822 -1.130369,-0.67822 -0.719325,0 -1.500306,0.28773 -2.322393,0.84263 -0.822087,0.55491 -1.644174,1.39755 -2.445708,2.50737 -0.780981,1.04816 -1.233128,1.80859 -1.356442,2.30184 -0.20552,0.76043 0.18497,1.13037 1.150922,1.13037 0.842639,0 1.685276,-0.30828 2.507363,-0.9454 0.719326,-0.53436 1.479754,-1.35644 2.281288,-2.44571 z"
       class="fil1"     />
    <path
       style="fill:#501d7d;stroke-width:0.02055216;image-rendering:optimizeQuality;shape-rendering:geometricPrecision;text-rendering:geometricPrecision"
       id="path27"
       d="m 81.409819,137.82031 h -1.91135 l 0.904293,-3.76105 h -2.11687 l -2.75399,3.76105 H 73.80552 l 7.028838,-9.57731 h 4.315953 c 0.965951,0 1.541412,0.20552 1.705829,0.61656 0.164418,0.45215 -0.123314,1.21258 -0.883743,2.26074 -0.534355,0.71933 -1.068712,1.29479 -1.644173,1.72638 -0.637117,0.4727 -1.294784,0.80154 -1.993559,0.96595 z m 2.795093,-6.6589 c 0.349388,-0.4727 0.452146,-0.80154 0.328835,-0.96595 -0.143865,-0.16442 -0.493252,-0.26718 -1.04816,-0.26718 h -2.178529 l -1.808589,2.46626 h 2.178527 c 0.57546,0 0.986504,-0.0411 1.253683,-0.14387 0.431593,-0.16442 0.86319,-0.53436 1.274233,-1.08926 z"
       class="fil1"     />
    <path
       style="fill:#501d7d;stroke-width:0.02055216;image-rendering:optimizeQuality;shape-rendering:geometricPrecision;text-rendering:geometricPrecision"
       id="path29"
       d="m 90.391111,137.82031 h -1.91135 l 0.904293,-2.30185 h -3.678835 l -2.425155,2.30185 H 81.471475 L 91.994179,128.243 h 1.829142 z m -0.349387,-3.96657 1.500309,-3.80215 -4.048776,3.80215 z"
       class="fil1"     />
    <path
       style="fill:#501d7d;stroke-width:0.02055216;image-rendering:optimizeQuality;shape-rendering:geometricPrecision;text-rendering:geometricPrecision"
       id="path31"
       d="m 101.57149,129.90772 h -2.712892 l -5.795706,7.91259 h -1.829144 l 5.816262,-7.91259 h -2.671782 l 1.192025,-1.62362 h 7.193257 z"
       class="fil1"     />
    <path
       style="fill:#501d7d;stroke-width:0.02055216;image-rendering:optimizeQuality;shape-rendering:geometricPrecision;text-rendering:geometricPrecision"
       id="path33"
       d="m 108.00431,133.03165 c -1.33589,1.80859 -2.73344,3.14448 -4.19264,3.96657 -1.21258,0.69877 -2.42516,1.02761 -3.63773,1.02761 -0.657673,0 -1.150925,-0.0822 -1.479759,-0.24663 -0.554908,-0.24663 -0.801534,-0.71932 -0.739876,-1.37699 0.08221,-0.82209 0.637117,-1.95246 1.705827,-3.39111 1.007058,-1.37699 2.014108,-2.44571 3.021168,-3.24724 0.84264,-0.63712 1.70583,-1.10982 2.63068,-1.39755 0.67822,-0.20552 1.39754,-0.30828 2.13742,-0.30828 1.19203,0 1.9319,0.26718 2.21963,0.78098 0.22608,0.4316 0.16442,1.06871 -0.22607,1.91135 -0.28773,0.59602 -0.76043,1.35645 -1.43865,2.28129 z m -1.8908,0.0205 c 0.92485,-1.25368 1.35644,-2.15797 1.31534,-2.71288 -0.0411,-0.45215 -0.41104,-0.67822 -1.15092,-0.67822 -0.71933,0 -1.47976,0.28773 -2.30184,0.84263 -0.82209,0.55491 -1.64418,1.39755 -2.46626,2.50737 -0.76043,1.04816 -1.21258,1.80859 -1.33589,2.30184 -0.205523,0.76043 0.18497,1.13037 1.15092,1.13037 0.84264,0 1.68528,-0.30828 2.50736,-0.9454 0.71933,-0.53436 1.47976,-1.35644 2.28129,-2.44571 z"
       class="fil1"     />
    <path
       style="fill:#501d7d;stroke-width:0.02055216;image-rendering:optimizeQuality;shape-rendering:geometricPrecision;text-rendering:geometricPrecision"
       id="path35"
       d="m 113.30676,137.82031 h -1.91135 l 0.88375,-3.76105 h -2.09632 l -2.75399,3.76105 h -1.72638 l 7.02884,-9.57731 h 4.31595 c 0.96595,0 1.54141,0.20552 1.68527,0.61656 0.18498,0.45215 -0.10276,1.21258 -0.88374,2.26074 -0.5138,0.71933 -1.06871,1.29479 -1.62362,1.72638 -0.63712,0.4727 -1.31534,0.80154 -1.99356,0.96595 z m 2.7951,-6.6589 c 0.34938,-0.4727 0.45215,-0.80154 0.30828,-0.96595 -0.12331,-0.16442 -0.4727,-0.26718 -1.04816,-0.26718 h -2.15797 l -1.8086,2.46626 h 2.17853 c 0.57546,0 0.98651,-0.0411 1.25369,-0.14387 0.43159,-0.16442 0.86319,-0.53436 1.27423,-1.08926 z"
       class="fil1"     />
  </g>
</svg>
