<?xml version="1.0" encoding="UTF-8" standalone="no"?>
<!-- Created with Inkscape (http://www.inkscape.org/) --><svg
   xmlns:dc="http://purl.org/dc/elements/1.1/"
   xmlns:cc="http://creativecommons.org/ns#"
   xmlns:rdf="http://www.w3.org/1999/02/22-rdf-syntax-ns#"
   xmlns:svg="http://www.w3.org/2000/svg"
   xmlns="http://www.w3.org/2000/svg"
   xmlns:sodipodi="http://sodipodi.sourceforge.net/DTD/sodipodi-0.dtd"
   xmlns:inkscape="http://www.inkscape.org/namespaces/inkscape"
   width="195.76839mm"
   height="85.30217mm"
   viewBox="0 0 195.76839 85.30217"
   version="1.1"
   id="svg4787"   sodipodi:docname="grew.svg">
  <defs
     id="defs4781" />
  <sodipodi:namedview
     id="base"
     pagecolor="#ffffff"
     bordercolor="#666666"
     borderopacity="1.0"     showgrid="false" />
  <metadata
     id="metadata4784">
    <rdf:RDF>
      <cc:Work
         rdf:about="">
        <dc:format>image/svg+xml</dc:format>
        <dc:type
           rdf:resource="http://purl.org/dc/dcmitype/StillImage" />
        <dc:title></dc:title>
      </cc:Work>
    </rdf:RDF>
  </metadata>
  <g     id="layer1"
     transform="translate(-7.9491398,-54.777487)">
    <g
       transform="translate(1.6957971,49.427216)"
       id="g4730">
      <path         id="path1479-6"
         transform="scale(0.26458333)"
         d="m 396.38281,116.69336 c -21.22372,0 -39.05843,8.38897 -53.5039,25.16797 -13.77874,16.00111 -20.66797,34.78082 -20.66797,56.33789 0,22.22381 7.50088,41.44656 22.50195,57.66992 15.33441,16.55674 34.00237,24.83594 56.00391,24.83594 23.55723,0 42.64998,-12.1819 54.87304,-33.07227 0.65651,-1.50955 1.63558,-3.46883 2.34375,-5.44531 1.97588,-4.07062 3.24677,-8.51936 3.3711,-14.24414 0.10526,-4.84415 -1.42113,-8.96781 -4.57813,-12.375 -3.15454,-3.51497 -7.15382,-5.32657 -11.99804,-5.43164 -6.88944,-0.14968 -10.40798,3.11279 -10.55274,9.78711 -0.14498,6.67416 3.06634,10.08182 9.63281,10.22461 4.73666,0.10285 7.95228,-1.65626 9.64649,-5.28125 0.19423,0.8536 0.94833,1.63097 0.92187,6.04101 -0.10964,0.85998 -0.16227,1.35168 -0.25195,2.10157 -6.84658,18.84834 -29.4988,38.69531 -51.4082,38.69531 -16.89011,0 -30.33524,-8.00085 -40.33594,-24.00196 -7.11163,-11.44525 -10.66797,-28.67025 -10.66797,-51.67187 h 99.67383 c 5.8893,0 8.83398,-3.05446 8.83398,-9.16602 0,-20.33477 -5.49919,-36.89125 -16.5,-49.66992 -11.55636,-13.66766 -27.33648,-20.50195 -47.33789,-20.50195 z m 0,8.16797 c 13.88988,0 24.44721,6.8892 31.66992,20.66797 5.55599,10.88966 8.44378,24.11134 8.66602,39.66797 h -84.50586 c 1.44455,-29.11315 11.16864,-47.94773 29.16992,-56.50391 5.44487,-2.55574 10.44412,-3.83203 15,-3.83203 z"
         style="font-style:normal;font-variant:normal;font-weight:normal;font-stretch:normal;font-size:92.34809113px;line-height:124.00000095%;font-family:Symbola;-inkscape-font-specification:Symbola;letter-spacing:0px;word-spacing:0px;opacity:1;vector-effect:none;fill:#15a700;fill-opacity:1;stroke:none;stroke-width:4.00028181px;stroke-linecap:butt;stroke-linejoin:miter;stroke-miterlimit:4;stroke-dasharray:none;stroke-dashoffset:0;stroke-opacity:1" />
      <path         id="path892"
         transform="scale(0.26458333)"
         d="m 256.64648,129.31055 -47.40429,3.67187 v 10.85352 c 10.42789,-0.10642 16.91888,0.42522 19.47265,1.5957 4.78831,2.34097 7.18164,8.14103 7.18164,17.39844 v 91.61523 c 0,10.42791 -5.32023,15.64258 -15.96093,15.64258 -1.2769,0 -3.08484,-0.0538 -5.42578,-0.16016 -2.34097,-0.1064 -4.09712,-0.1582 -5.26758,-0.1582 v 10.5332 c 1.80891,0 6.96986,-0.21305 15.48242,-0.63867 6.27803,-0.21281 11.43896,-0.31836 15.48242,-0.31836 h 27.77149 c 7.02287,0 14.84391,0.31861 23.46289,0.95703 v -10.5332 h -7.02344 c -9.04462,0 -14.79092,-0.37232 -17.23828,-1.11719 -5.95879,-1.70251 -8.9375,-5.85393 -8.9375,-12.45117 v -55.22461 c 0,-16.06747 2.92692,-30.00717 8.77929,-41.81836 7.55491,-14.89699 18.56769,-22.3457 33.03907,-22.3457 0.85125,0 1.59594,0.1075 2.23437,0.32031 -5.10753,2.12814 -7.66211,6.59618 -7.66211,13.40625 0,4.25627 1.38381,7.76857 4.15039,10.53516 2.873,2.76658 6.38528,4.15039 10.53516,4.15039 4.25627,0 7.71286,-1.43757 10.37305,-4.31055 2.76658,-2.873 4.15039,-6.43708 4.15039,-10.69336 0,-6.17162 -2.76566,-11.2788 -8.29883,-15.32226 -5.00114,-3.72426 -10.6937,-5.58789 -17.07813,-5.58789 -19.79173,0 -33.73141,12.50409 -41.81836,37.50976 z"
         style="font-style:normal;font-variant:normal;font-weight:normal;font-stretch:normal;font-size:104.84972382px;line-height:124.00000095%;font-family:Symbola;-inkscape-font-specification:Symbola;letter-spacing:0px;word-spacing:0px;fill:#15a700;fill-opacity:1;stroke:none;stroke-width:3.83065653px;stroke-linecap:butt;stroke-linejoin:miter;stroke-opacity:1" />
      <path         id="path1161-5"
         transform="scale(0.26458333)"
         d="m 748.82422,20.230469 c -3.55558,-0.159847 -6.35239,1.816473 -8.38867,5.929687 -2.96183,5.982763 -1.49952,10.431653 4.38672,13.345703 4.24592,2.101966 7.90291,1.871016 10.97461,-0.693359 -0.23706,0.964033 -0.61708,1.977571 -1.14258,3.039062 -4.56492,9.220948 -12.92693,16.157091 -33.4375,17.589844 -3.7396,0.165699 -7.31916,0.265625 -10.64453,0.265625 -5.65762,0 -17.20387,-0.461087 -34.63868,-1.384765 v 11.777343 c 14.43281,0.346383 21.65039,6.176868 21.65039,17.492188 0,2.078305 -0.8251,4.655915 -1.73242,7.966797 L 654.00195,248.27148 601.22852,114.80078 c -1.27004,-3.57932 -1.9043,-6.00334 -1.9043,-7.27344 0,-6.58133 7.38884,-9.814566 22.16797,-9.699215 V 86.050781 c -25.979,0.923713 -38.9102,1.384766 -38.79492,1.384766 -7.96687,0 -18.8789,-0.461053 -32.73438,-1.384766 v 11.777344 c 11.54623,0 18.99535,1.61667 22.34375,4.849605 1.8474,1.84743 4.96399,8.83155 9.35156,20.95508 L 538.92578,243.76758 502.38281,141.41016 c -0.34647,-0.92372 -0.51953,-1.96256 -0.51953,-3.11719 0,-6.81226 7.21563,-10.16027 21.64844,-10.04492 V 116.4707 l -40.35352,1.38672 c -6.3504,0 -17.78187,-0.463 -34.29297,-1.38672 v 11.77735 c 8.31326,-0.11546 13.79752,0.23084 16.45313,1.03906 4.9649,1.61647 8.54445,5.54239 10.73828,11.77734 l 46.76172,131.10743 c 1.96282,5.54216 4.56195,8.3125 7.79492,8.3125 3.11751,-10e-6 5.54151,-2.42404 7.27344,-7.27344 l 48.44726,-135.375 53.98633,135.7207 c 1.61647,4.61849 4.04047,6.92774 7.27344,6.92774 3.23293,-10e-6 5.65892,-2.30925 7.27539,-6.92774 l 51.7207,-179.902343 c 3.95232,-10.951152 13.80197,-19.677825 27.76368,-28.207031 16.75493,-8.001339 22.08767,-10.093929 27.24804,-20.517578 2.14972,-4.342266 2.51755,-8.725882 1.10352,-13.150391 -1.36615,-4.521062 -4.22016,-7.85616 -8.5625,-10.005859 -1.92992,-0.955427 -3.70219,-1.470312 -5.31836,-1.542969 z"
         style="font-style:normal;font-variant:normal;font-weight:normal;font-stretch:normal;font-size:104.84973145px;line-height:124.00000095%;font-family:Symbola;-inkscape-font-specification:Symbola;letter-spacing:0px;word-spacing:0px;fill:#15a700;fill-opacity:1;stroke:none;stroke-width:4.15664244px;stroke-linecap:butt;stroke-linejoin:miter;stroke-opacity:1" />
      <g
         transform="translate(-80.448208,-164.89527)"
         id="g4710">
        <path
           style="font-style:normal;font-variant:normal;font-weight:normal;font-stretch:normal;font-size:92.34809113px;line-height:124.00000095%;font-family:Symbola;-inkscape-font-specification:Symbola;letter-spacing:0px;word-spacing:0px;fill:#15a700;fill-opacity:0.21681417;stroke:none;stroke-width:0.89268082px;stroke-linecap:butt;stroke-linejoin:miter;stroke-opacity:1"
           d="m 98.731439,239.05879 c -0.04832,1.34102 -0.225716,2.85608 -0.55449,4.58473 -0.168108,0.58528 -0.254246,1.1928 -0.254246,1.82418 0,3.37235 2.194557,6.00127 6.583577,7.88582 3.39714,1.463 7.06699,2.19419 11.00966,2.19419 4.04186,0 7.74894,-0.73119 11.12129,-2.19419 4.38901,-1.90934 6.58357,-4.5998 6.58357,-8.07134 0,-2.44827 -0.65054,-4.52106 -1.94251,-6.22339 h -9.94461 c 5.09625,0.83055 7.64707,2.96591 7.64707,6.40891 0,2.67805 -1.63661,4.81056 -4.90977,6.39754 -2.62845,1.26463 -5.45543,1.89704 -8.48062,1.89704 -3.05,0 -5.9142,-0.63241 -8.59224,-1.89704 -3.32276,-1.56219 -4.98419,-3.6947 -4.98419,-6.39754 0,-1.78536 0.64482,-3.37234 1.93424,-4.76095 0.73505,-0.76278 1.5438,-1.3119 2.42621,-1.64796 z"
           id="path895-2"
 />
        <path           style="font-style:normal;font-variant:normal;font-weight:normal;font-stretch:normal;font-size:92.34809113px;line-height:124.00000095%;font-family:Symbola;-inkscape-font-specification:Symbola;letter-spacing:0px;word-spacing:0px;fill:#15a700;fill-opacity:1;stroke:none;stroke-width:3.37391186px;stroke-linecap:butt;stroke-linejoin:miter;stroke-opacity:1"
           d="m 492.26562,767.63281 c -11.62125,0 -22.259,4.73355 -31.9121,14.19922 -9.18456,-7.2164 -19.82227,-10.82617 -31.91211,-10.82617 -12.74589,0 -23.94452,4.07689 -33.59766,12.23047 -10.12176,8.62223 -15.18359,19.21302 -15.18359,31.77148 0,12.74589 4.7335,23.10218 14.19922,31.06836 -6.1855,7.31014 -9.27735,15.55767 -9.27735,24.74219 0,12.18357 4.40319,21.17963 13.21289,26.99023 -3.54678,1.01972 -6.8213,2.36677 -9.84375,4.01563 -4.44691,-12.65068 -13.1634,-34.39747 -22.94726,-42.41797 -5.13185,-4.20692 -10.86709,-6.04863 -17.20703,-5.52539 -6.45409,0.42966 -11.7852,3.2098 -15.99219,8.3418 -5.98323,7.29879 -5.43996,13.84625 1.63086,19.64257 7.07063,5.79629 13.45738,5.21637 19.16015,-1.74023 4.11371,-5.018 4.9342,-9.97003 2.45899,-14.85938 1.21335,0.61346 2.44667,1.43253 3.70117,2.46094 9.01322,7.38876 15.07817,17.04526 14.40234,35.80274 h 28.88672 c 2.6279,-1.00081 5.42857,-1.50196 8.40235,-1.50196 h 26.85156 c 8.07207,0 15.1605,0.5038 21.28515,1.50196 h 37.58594 c -3.17839,-4.18792 -7.37405,-7.78822 -12.62109,-10.78125 -9.65314,-5.52949 -25.81981,-8.29297 -48.5,-8.29297 -1.78065,0 -4.40345,0.0938 -7.8711,0.28125 -3.46764,0.0937 -6.09236,0.14062 -7.87304,0.14062 -17.1507,0 -25.72656,-6.983 -25.72657,-20.94726 0,-5.34202 1.68664,-10.02864 5.06055,-14.0586 8.80966,6.27927 18.7438,9.41993 29.80274,9.41993 12.74589,0 23.89953,-4.12372 33.45898,-12.3711 10.12169,-8.6222 15.18164,-19.21302 15.18164,-31.77148 0,-11.80868 -4.07685,-21.50832 -12.23047,-29.09961 8.34108,-7.87249 17.38594,-11.8086 27.13282,-11.8086 1.0309,0 1.96706,0.0938 2.81054,0.28125 -3.18648,1.4058 -4.77929,4.16928 -4.7793,8.29297 0,5.71692 2.90616,8.57617 8.7168,8.57617 5.81061,0 8.71485,-2.99997 8.71485,-8.99804 0,-4.21739 -1.499,-7.73134 -4.49805,-10.54297 -2.90529,-2.81159 -6.46617,-4.2168 -10.6836,-4.2168 z m -63.82421,10.26172 c 17.52559,0 26.28906,12.37125 26.28906,37.11328 0,11.24636 -1.63975,19.63458 -4.91992,25.16407 -4.77974,8.05988 -11.90347,12.08984 -21.36914,12.08984 -17.52564,0 -26.28711,-12.37129 -26.28711,-37.11328 0,-11.24636 1.59281,-19.58765 4.77929,-25.02344 4.77971,-8.15361 11.94837,-12.23047 21.50782,-12.23047 z"
           transform="scale(0.26458333)"
           id="path895-2-5" />
      </g>
    </g>
  </g>
</svg>
