<?xml version="1.0" encoding="UTF-8" standalone="no"?>
<!-- Created with Inkscape (http://www.inkscape.org/) --><svg
   xmlns:dc="http://purl.org/dc/elements/1.1/"
   xmlns:cc="http://creativecommons.org/ns#"
   xmlns:rdf="http://www.w3.org/1999/02/22-rdf-syntax-ns#"
   xmlns:svg="http://www.w3.org/2000/svg"
   xmlns="http://www.w3.org/2000/svg"
   xmlns:sodipodi="http://sodipodi.sourceforge.net/DTD/sodipodi-0.dtd"
   xmlns:inkscape="http://www.inkscape.org/namespaces/inkscape"
   width="144.22121mm"
   height="205.11185mm"
   viewBox="0 0 144.22121 205.11185"
   version="1.1"
   id="svg8"   sodipodi:docname="sud.svg">
  <defs
     id="defs2" />
  <sodipodi:namedview
     id="base"
     pagecolor="#ffffff"
     bordercolor="#666666"
     borderopacity="1.0"     showgrid="false"     fit-margin-top="0"
     fit-margin-left="0"
     fit-margin-right="0"
     fit-margin-bottom="0" />
  <metadata
     id="metadata5">
    <rdf:RDF>
      <cc:Work
         rdf:about="">
        <dc:format>image/svg+xml</dc:format>
        <dc:type
           rdf:resource="http://purl.org/dc/dcmitype/StillImage" />
        <dc:title></dc:title>
      </cc:Work>
    </rdf:RDF>
  </metadata>
  <g     id="layer1"
     transform="translate(-34.402501,-15.222236)">
    <g
       id="g1028"
       transform="matrix(0.808972,0,0,0.808972,19.495904,-3.4424133)">
      <path
         d="m 132.5303,61.732707 c 8.21023,-0.857629 13.55065,3.199045 17.55509,8.626676 4.12535,5.563191 4.59293,12.974931 4.59293,22.236384 l 41.63221,-0.127871 c 0.4782,-13.069038 0.91767,-18.244718 -1.23055,-26.991181 -1.44397,-5.879256 -3.65005,-11.170485 -7.67216,-16.461892 -3.88354,-5.292017 -9.02592,-9.421515 -15.42711,-12.388479 -6.41888,-2.830777 -13.99336,-4.227253 -22.72344,-4.189393 -7.0672,0.03059 -14.43128,1.05972 -21.21012,3.35893 -7.7068,2.613967 -13.63921,7.655481 -21.46111,11.6391 -6.697202,3.410793 -14.247994,6.478175 -21.745697,5.958089 -6.979501,-0.484138 -15.157789,-2.724832 -19.283129,-8.288005 -4.00444,-5.427613 -5.47497,-12.77193 -4.411588,-22.033007 l -41.982612,0.128049 c -1.148926,8.853053 -0.953483,16.951594 0.586334,24.295626 1.539815,7.34405 4.251497,13.662056 8.135038,18.954071 4.022117,5.29139 9.242611,9.352483 15.661483,12.183259 6.401194,2.966982 13.96683,4.431561 22.696911,4.3937 7.067206,-0.03059 14.275088,-1.585689 21.210123,-3.358929 7.95437,-2.033882 15.811797,-4.698408 23.191117,-8.297609 11.12393,-3.653157 14.44156,-8.859777 21.88628,-9.637447 z"
         style="font-style:normal;font-variant:normal;font-weight:normal;font-stretch:normal;font-size:235.76422119px;line-height:125%;font-family:Carlito;-inkscape-font-specification:'Carlito, Normal';font-variant-ligatures:normal;font-variant-caps:normal;font-variant-numeric:normal;font-feature-settings:normal;text-align:start;letter-spacing:0px;word-spacing:0px;writing-mode:lr-tb;text-anchor:start;vector-effect:none;fill:#fd940f;fill-opacity:1;stroke:none;stroke-width:1.01796591;stroke-linecap:butt;stroke-linejoin:miter;stroke-miterlimit:4;stroke-dasharray:none;stroke-dashoffset:0;stroke-opacity:1"
         id="path1004"         sodipodi:nodetypes="scccaccsasacccsccsacs" />
      <path         d="m 107.70418,247.57194 q 11.15591,0 19.76187,-2.943 8.76537,-2.94304 14.66205,-8.31727 6.05607,-5.37422 9.24345,-13.05167 3.18743,-7.67746 3.18743,-17.14633 V 104.77119 h 41.75493 v 101.34248 q 0,15.35492 -6.21542,28.27864 -6.05607,12.92372 -17.53072,22.39262 -11.47464,9.34089 -27.88975,14.58714 -16.41511,5.24627 -36.97384,5.24627 -20.558736,0 -37.133204,-5.24627 -16.415114,-5.24625 -27.88975,-14.58714 -11.474636,-9.4689 -17.690068,-22.39262 -6.056062,-12.92372 -6.056062,-28.27864 V 104.77119 H 60.84941 v 101.34248 q 0,9.46887 3.187393,17.14633 3.187389,7.67745 9.084099,13.05167 6.05604,5.37423 14.662028,8.31727 8.765354,2.943 19.92125,2.943 z"
         style="font-style:normal;font-variant:normal;font-weight:bold;font-stretch:normal;font-size:163.53115845px;line-height:125%;font-family:Carlito;-inkscape-font-specification:'Carlito, Normal';font-variant-ligatures:normal;font-variant-caps:normal;font-variant-numeric:normal;font-feature-settings:normal;text-align:start;letter-spacing:0px;word-spacing:0px;writing-mode:lr-tb;text-anchor:start;fill:#ff0000;fill-opacity:1;stroke:none;stroke-width:7.31149817px;stroke-linecap:butt;stroke-linejoin:miter;stroke-opacity:1"
         id="path948-9" />
      <path
         sodipodi:nodetypes="ccsccccscccccsc"         id="path948"
         d="m 87.042739,104.67703 -0.06576,139.64502 c 3.328501,1.24498 10.375993,3.14498 19.535621,3.31459 13.03376,0.24135 19.83963,-2.38652 23.36864,-3.90845 l -0.98976,-107.95512 c 4.9123,1.89488 9.09049,4.41244 12.53471,7.5515 4.03738,3.58282 7.73878,7.93302 9.86371,13.05133 2.12494,5.11829 3.18751,10.8338 3.18751,17.14638 v 12.25653 h 41.75463 v -12.25653 c 0,0 -2.07153,-19.66328 -6.21515,-28.27909 -4.03736,-8.61581 -10.5011,-16.07947 -18.15085,-22.39206 -14.2364,-9.95988 -31.48423,-16.7471 -47.30435,-17.59149 -13.74819,-0.7338 -23.43243,-0.58261 -37.518951,-0.58261 z"
         style="font-style:normal;font-variant:normal;font-weight:bold;font-stretch:normal;font-size:163.53115845px;line-height:125%;font-family:Carlito;-inkscape-font-specification:'Carlito, Normal';font-variant-ligatures:normal;font-variant-caps:normal;font-variant-numeric:normal;font-feature-settings:normal;text-align:start;letter-spacing:0px;word-spacing:0px;writing-mode:lr-tb;text-anchor:start;opacity:1;vector-effect:none;fill:#fd940f;fill-opacity:1;stroke:none;stroke-width:1.01796591;stroke-linecap:butt;stroke-linejoin:miter;stroke-miterlimit:4;stroke-dasharray:none;stroke-dashoffset:0;stroke-opacity:1" />
    </g>
  </g>
</svg>
