<?xml version="1.0" encoding="UTF-8" standalone="no"?>
<!-- Created with Inkscape (http://www.inkscape.org/) --><svg
   xmlns:dc="http://purl.org/dc/elements/1.1/"
   xmlns:cc="http://creativecommons.org/ns#"
   xmlns:rdf="http://www.w3.org/1999/02/22-rdf-syntax-ns#"
   xmlns:svg="http://www.w3.org/2000/svg"
   xmlns="http://www.w3.org/2000/svg"
   xmlns:sodipodi="http://sodipodi.sourceforge.net/DTD/sodipodi-0.dtd"
   xmlns:inkscape="http://www.inkscape.org/namespaces/inkscape"
   width="80.906387mm"
   height="25.02722mm"
   viewBox="0 0 80.906387 25.02722"
   version="1.1"
   id="svg884"   sodipodi:docname="arborator.quick.svg">
  <defs
     id="defs878" />
  <sodipodi:namedview
     id="base"
     pagecolor="#ffffff"
     bordercolor="#666666"
     borderopacity="1.0"     showgrid="false"
     fit-margin-top="0"
     fit-margin-left="0"
     fit-margin-right="0"
     fit-margin-bottom="0" />
  <metadata
     id="metadata881">
    <rdf:RDF>
      <cc:Work
         rdf:about="">
        <dc:format>image/svg+xml</dc:format>
        <dc:type
           rdf:resource="http://purl.org/dc/dcmitype/StillImage" />
        <dc:title />
      </cc:Work>
    </rdf:RDF>
  </metadata>
  <g     id="layer1"
     transform="translate(-91.082523,-105.32568)">
    <g
       aria-label="uick"
       style="color:#000000;font-style:normal;font-weight:normal;font-size:3.17499995px;line-height:0%;font-family:sans-serif;text-decoration:none;text-decoration-line:none;text-decoration-style:solid;text-decoration-color:#000000;letter-spacing:0px;word-spacing:0px;white-space:normal;clip-rule:nonzero;display:inline;overflow:visible;visibility:visible;opacity:1;isolation:auto;mix-blend-mode:normal;color-interpolation:sRGB;color-interpolation-filters:linearRGB;solid-color:#000000;solid-opacity:1;fill:#501d7d;fill-opacity:1;fill-rule:nonzero;stroke:none;stroke-width:0.26458332;stroke-linecap:butt;stroke-linejoin:miter;stroke-miterlimit:4;stroke-dasharray:none;stroke-dashoffset:0;stroke-opacity:1;color-rendering:auto;image-rendering:auto;shape-rendering:auto;text-rendering:auto;enable-background:accumulate"
       id="text4241" />
    <g
       id="g840">
      <path         class="fil1"
         d="m 106.39033,112.1481 -5.93261,12.37107 c -2.495224,-0.57012 -4.930654,-1.6655 -6.546094,-3.02718 -4.85322,-4.09087 -3.30558,-10.13286 3.44077,-13.45701 6.742044,-3.32205 16.195064,-2.70045 21.048284,1.39041 4.8532,4.09086 3.30556,10.13286 -3.43651,13.4549 -1.05397,0.51933 -2.29238,0.94591 -3.467,1.29514 z"
         id="path13-7-9-5"
         style="fill:#501d7d;stroke-width:0.26458332"
 />
      <path
         id="path821"
         style="color:#000000;font-style:normal;font-weight:normal;font-size:24.76963615px;line-height:1.25;font-family:'Book Antiqua';text-decoration:none;text-decoration-line:none;text-decoration-style:solid;text-decoration-color:#000000;letter-spacing:0px;word-spacing:0px;white-space:normal;clip-rule:nonzero;display:inline;overflow:visible;visibility:visible;opacity:1;isolation:auto;mix-blend-mode:normal;color-interpolation:sRGB;color-interpolation-filters:linearRGB;solid-color:#000000;solid-opacity:1;fill:#501d7d;fill-opacity:1;fill-rule:nonzero;stroke:none;stroke-width:0.26458332;stroke-linecap:butt;stroke-linejoin:miter;stroke-miterlimit:4;stroke-dasharray:none;stroke-dashoffset:0;stroke-opacity:1;color-rendering:auto;image-rendering:auto;shape-rendering:auto;text-rendering:auto;enable-background:accumulate;font-variant:normal;font-stretch:normal;-inkscape-font-specification:'Book Antiqua'"
         d="m 131.64149,124.22946 0.14514,-2.17702 -0.71358,0.77405 q -0.83453,0.90709 -1.70533,1.28202 -0.85872,0.36284 -2.12864,0.36284 -1.08851,0 -1.87466,-0.45959 -0.78614,-0.45959 -1.14898,-1.18527 -0.35074,-0.73777 -0.35074,-2.32215 0,-0.82243 0.0363,-1.91094 l 0.0363,-1.94722 q 0,-2.04398 -0.12094,-2.27378 -0.10885,-0.22979 -0.76196,-0.22979 h -1.07641 v -0.6652 q 1.64486,-0.14514 3.03573,-0.60473 l 1.00385,-0.37493 q 0.2056,0 0.2056,0.30236 l -0.0847,1.23365 q -0.16932,2.56404 -0.16932,4.76525 0,2.20121 0.18142,2.81803 0.18142,0.60473 0.76195,1.01594 0.58054,0.39912 1.41507,0.39912 1.12479,0 2.05607,-0.72567 0.94337,-0.72568 1.23364,-1.46344 0.15723,-0.42331 0.15723,-2.55195 0,-3.57999 -0.13304,-3.89445 -0.12094,-0.25398 -1.08851,-0.25398 h -0.95547 v -0.6652 q 1.24574,-0.14514 2.11655,-0.33865 0.87081,-0.19351 1.83837,-0.58054 0.12095,-0.0605 0.2177,-0.0605 0.20561,0 0.20561,0.22979 l -0.0484,1.1248 q -0.18142,4.13633 -0.18142,7.28092 0,1.7658 0.18142,2.01979 0.26608,0.37493 1.14898,0.37493 h 0.70149 v 0.70148 q -1.51182,-0.0847 -2.56405,-0.0847 -0.78614,0 -1.57229,0.0847 z"
         transform="translate(-1.1041667e-6)" />
      <path
         id="path823"
         style="color:#000000;font-style:normal;font-weight:normal;font-size:24.76963615px;line-height:1.25;font-family:'Book Antiqua';text-decoration:none;text-decoration-line:none;text-decoration-style:solid;text-decoration-color:#000000;letter-spacing:0px;word-spacing:0px;white-space:normal;clip-rule:nonzero;display:inline;overflow:visible;visibility:visible;opacity:1;isolation:auto;mix-blend-mode:normal;color-interpolation:sRGB;color-interpolation-filters:linearRGB;solid-color:#000000;solid-opacity:1;fill:#501d7d;fill-opacity:1;fill-rule:nonzero;stroke:none;stroke-width:0.26458332;stroke-linecap:butt;stroke-linejoin:miter;stroke-miterlimit:4;stroke-dasharray:none;stroke-dashoffset:0;stroke-opacity:1;color-rendering:auto;image-rendering:auto;shape-rendering:auto;text-rendering:auto;enable-background:accumulate;font-variant:normal;font-stretch:normal;-inkscape-font-specification:'Book Antiqua'"
         d="m 140.0472,107.12777 q 0.55635,0 0.95547,0.41121 0.39912,0.39912 0.39912,0.96757 0,0.56844 -0.39912,0.96756 -0.39912,0.39912 -0.95547,0.39912 -0.56844,0 -0.96756,-0.39912 -0.39912,-0.39912 -0.39912,-0.96756 0,-0.56845 0.39912,-0.96757 0.39912,-0.41121 0.96756,-0.41121 z m 0.96757,5.35788 0.29027,0.18142 q -0.0847,0.90709 -0.10885,1.9956 -0.0847,3.53161 -0.0847,5.21275 0,1.57229 0.10885,2.68499 0.0484,0.43541 0.2298,0.60473 0.18142,0.16932 0.87081,0.25399 l 0.82243,0.10885 v 0.70148 q -1.76581,-0.0847 -3.21715,-0.0847 -1.42716,0 -2.87851,0.0847 v -0.70148 l 1.04014,-0.10885 q 0.60472,-0.0484 0.73776,-0.21771 0.14514,-0.18141 0.18142,-1.17317 0.0605,-1.53601 0.0605,-4.23309 0,-1.87465 -0.0605,-2.8906 -0.0242,-0.37493 -0.2177,-0.53216 -0.18142,-0.15723 -0.83452,-0.15723 h -0.9071 v -0.71357 q 1.47554,-0.21771 2.16493,-0.39912 0.70148,-0.18142 1.80209,-0.61683 z"
         transform="translate(-1.1041667e-6)" />
      <path
         id="path825"
         style="color:#000000;font-style:normal;font-weight:normal;font-size:24.76963615px;line-height:1.25;font-family:'Book Antiqua';text-decoration:none;text-decoration-line:none;text-decoration-style:solid;text-decoration-color:#000000;letter-spacing:0px;word-spacing:0px;white-space:normal;clip-rule:nonzero;display:inline;overflow:visible;visibility:visible;opacity:1;isolation:auto;mix-blend-mode:normal;color-interpolation:sRGB;color-interpolation-filters:linearRGB;solid-color:#000000;solid-opacity:1;fill:#501d7d;fill-opacity:1;fill-rule:nonzero;stroke:none;stroke-width:0.26458332;stroke-linecap:butt;stroke-linejoin:miter;stroke-miterlimit:4;stroke-dasharray:none;stroke-dashoffset:0;stroke-opacity:1;color-rendering:auto;image-rendering:auto;shape-rendering:auto;text-rendering:auto;enable-background:accumulate;font-variant:normal;font-stretch:normal;-inkscape-font-specification:'Book Antiqua'"
         d="m 153.43587,122.51203 0.32655,0.29027 -0.49587,0.77405 q -0.82243,0.4475 -1.69324,0.6652 -0.87081,0.2298 -1.7779,0.2298 -1.7779,0 -3.02364,-0.67729 -1.23364,-0.6773 -1.91094,-1.95932 -0.67729,-1.28202 -0.67729,-3.04783 0,-1.56019 0.52006,-2.70918 0.52007,-1.16107 1.45135,-1.81418 0.94338,-0.6531 2.34634,-1.28202 0.99176,-0.4475 2.21331,-0.4475 0.93128,0 1.59648,0.15723 0.67729,0.14514 1.45134,0.53216 -0.30236,1.59648 -0.32655,3.19296 h -0.76196 v -0.60473 q 0,-0.77405 -0.22979,-1.08851 -0.21771,-0.32655 -1.01595,-0.64101 -0.79824,-0.31445 -1.74161,-0.31445 -1.63277,0 -2.51567,1.00384 -0.8829,0.99176 -0.8829,2.97526 0,2.55195 1.30621,4.08796 1.17317,1.39087 3.02364,1.39087 0.72567,0 1.42716,-0.18142 0.70148,-0.18141 1.39087,-0.53216 z"
         transform="translate(-1.1041667e-6)" />
      <path
         id="path827"
         style="color:#000000;font-style:normal;font-weight:normal;font-size:24.76963615px;line-height:1.25;font-family:'Book Antiqua';text-decoration:none;text-decoration-line:none;text-decoration-style:solid;text-decoration-color:#000000;letter-spacing:0px;word-spacing:0px;white-space:normal;clip-rule:nonzero;display:inline;overflow:visible;visibility:visible;opacity:1;isolation:auto;mix-blend-mode:normal;color-interpolation:sRGB;color-interpolation-filters:linearRGB;solid-color:#000000;solid-opacity:1;fill:#501d7d;fill-opacity:1;fill-rule:nonzero;stroke:none;stroke-width:0.26458332;stroke-linecap:butt;stroke-linejoin:miter;stroke-miterlimit:4;stroke-dasharray:none;stroke-dashoffset:0;stroke-opacity:1;color-rendering:auto;image-rendering:auto;shape-rendering:auto;text-rendering:auto;enable-background:accumulate;font-variant:normal;font-stretch:normal;-inkscape-font-specification:'Book Antiqua'"
         d="m 159.22916,118.17009 v 1.53601 q 0,3.04783 0.19351,3.43485 0.20561,0.38703 1.22155,0.38703 h 0.73777 v 0.70148 l -0.65311,-0.0242 q -1.74161,-0.0605 -2.29796,-0.0605 l -3.21715,0.0847 v -0.70148 h 0.71358 q 0.93128,0 1.1006,-0.35075 0.16932,-0.35074 0.16932,-3.44694 v -7.20835 q 0,-4.0033 -0.18141,-4.48708 -0.10885,-0.29027 -0.94338,-0.29027 h -1.02804 v -0.71358 q 1.01595,0 2.9027,-0.50797 l 1.22155,-0.38703 q 0.19351,0 0.19351,0.2419 l -0.0605,1.20945 q -0.0242,0.45959 -0.0726,5.05552 v 4.84992 l 0.15723,0.0847 q 1.1006,-0.82243 1.87465,-1.47554 0.39912,-0.33864 1.81419,-1.69323 l 1.74161,-1.63277 h 2.4431 v 0.70149 h -0.4354 q -0.42331,0 -1.08851,0.39912 -1.31831,0.78614 -4.35404,3.30181 2.27377,2.35844 2.79384,2.83012 2.41891,2.2254 2.91479,2.62452 0.30236,0.25399 0.52006,0.35074 0.2177,0.0847 0.61682,0.13304 v 0.53216 q -1.05222,0.47169 -2.31006,0.77405 -0.71357,-0.58054 -3.37437,-3.24134 -1.94723,-1.94722 -3.15668,-3.01154 z"
         transform="translate(-1.1041667e-6)" />
      <path
         sodipodi:nodetypes="ccccccsccccsc"
         id="path4196-4"
         style="color:#000000;font-style:normal;font-variant:normal;font-weight:normal;font-stretch:normal;font-size:377.8347168px;line-height:125%;font-family:'Asana Math';-inkscape-font-specification:'Asana Math';text-decoration:none;text-decoration-line:none;text-decoration-style:solid;text-decoration-color:#000000;letter-spacing:0px;word-spacing:0px;white-space:normal;clip-rule:nonzero;display:inline;overflow:visible;visibility:visible;opacity:1;isolation:auto;mix-blend-mode:normal;color-interpolation:sRGB;color-interpolation-filters:linearRGB;solid-color:#000000;solid-opacity:1;fill:#dd137b;fill-opacity:1;fill-rule:nonzero;stroke:#dd137b;stroke-width:0;stroke-linecap:butt;stroke-linejoin:miter;stroke-miterlimit:4;stroke-dasharray:none;stroke-dashoffset:0;stroke-opacity:1;color-rendering:auto;image-rendering:auto;shape-rendering:auto;text-rendering:auto;enable-background:accumulate"
         d="m 105.07988,122.8204 c 0,0 0,0 -1.15148,0 h 0.52776 l -0.76763,0.28787 c -0.91159,0.28787 -2.54283,1.39135 -5.229584,3.45439 l -0.096,1.53529 c 0.57573,-0.28787 3.694284,-1.91911 4.174054,-1.91911 0.91158,0 2.25496,0.23989 3.74226,0.71967 l 12.18633,3.45439 4.03014,-2.68675 v -1.00753 c -1.87114,0.23989 -2.3989,0.28786 -2.83069,0.28786 -5.51744,0 -9.49959,-3.50237 -14.58521,-4.12608 z"
 />
    </g>
  </g>
</svg>
