<?xml version="1.0" encoding="UTF-8" standalone="no"?>
<!-- Created with Inkscape (http://www.inkscape.org/) --><svg
   xmlns:dc="http://purl.org/dc/elements/1.1/"
   xmlns:cc="http://creativecommons.org/ns#"
   xmlns:rdf="http://www.w3.org/1999/02/22-rdf-syntax-ns#"
   xmlns:svg="http://www.w3.org/2000/svg"
   xmlns="http://www.w3.org/2000/svg"
   xmlns:sodipodi="http://sodipodi.sourceforge.net/DTD/sodipodi-0.dtd"
   xmlns:inkscape="http://www.inkscape.org/namespaces/inkscape"
   width="37.975456mm"
   height="74.884315mm"
   viewBox="0 0 37.975456 74.884316"
   version="1.1"
   id="svg903"   sodipodi:docname="paris.svg">
  <defs
     id="defs897" />
  <sodipodi:namedview
     id="base"
     pagecolor="#ffffff"
     bordercolor="#666666"
     borderopacity="1.0"     showgrid="false"
     fit-margin-top="0"
     fit-margin-left="0"
     fit-margin-right="0"
     fit-margin-bottom="0" />
  <metadata
     id="metadata900">
    <rdf:RDF>
      <cc:Work
         rdf:about="">
        <dc:format>image/svg+xml</dc:format>
        <dc:type
           rdf:resource="http://purl.org/dc/dcmitype/StillImage" />
        <dc:title />
      </cc:Work>
    </rdf:RDF>
  </metadata>
  <g     id="layer1"
     transform="translate(-30.002334,-97.256306)">
    <path
          style="color:#000000;clip-rule:nonzero;display:inline;overflow:visible;visibility:visible;opacity:1;isolation:auto;mix-blend-mode:normal;color-interpolation:sRGB;color-interpolation-filters:linearRGB;solid-color:#000000;solid-opacity:1;vector-effect:none;fill:#dd137b;fill-opacity:1;fill-rule:nonzero;stroke:#dd137b;stroke-width:1.09999993;stroke-linecap:butt;stroke-linejoin:bevel;stroke-miterlimit:4;stroke-dasharray:none;stroke-dashoffset:0;stroke-opacity:1;marker:none;color-rendering:auto;image-rendering:auto;shape-rendering:auto;text-rendering:auto;enable-background:accumulate;paint-order:markers stroke fill"
       id="rect814"
       d="m 48.978516,97.255859 c -0.317248,0.0072 -0.634201,0.01805 -0.951172,0.0332 -0.08976,2.968068 -0.323443,9.249298 -0.867188,16.605468 -0.566365,7.66214 -1.474692,16.43551 -2.875,23.57617 -0.422253,0.15403 -0.782776,0.32592 -1.076172,0.51172 -0.505513,0.32011 -0.832699,0.67769 -1.027343,0.98438 -0.194638,0.3067 -0.273438,0.66015 -0.273438,0.66015 l 1.818359,0.30469 c 0,0 -0.03626,0.0971 0.01172,0.0215 0.0064,-0.0101 0.01824,-0.0263 0.02734,-0.0391 -0.325159,1.43873 -0.671685,2.79902 -1.044922,4.03125 -0.83856,2.76852 -2.354127,6.21175 -4.101562,9.72657 -0.575027,0.25776 -1.0711,0.53238 -1.490235,0.81445 -0.964353,0.64897 -1.540427,1.33435 -1.86914,1.88476 -0.32871,0.55041 -0.425782,1.05664 -0.425782,1.05664 l 1.705078,0.26758 c -0.76059,1.42346 -1.532045,2.82527 -2.283203,4.1543 -1.610947,2.85028 -3.123585,5.38372 -4.253906,7.23828 0.535753,0.30263 1.079266,0.59273 1.628906,0.86914 1.133226,-1.86202 2.630705,-4.37413 4.228516,-7.20117 1.361249,-2.40845 2.786694,-5.02895 4.107422,-7.64648 1.679673,-0.63295 4.207442,-1.14874 7.984375,-1.18165 0.251796,-0.002 0.508454,-0.002 0.771484,0 4.617762,0.0389 7.575469,0.70015 9.449219,1.45704 1.28091,2.52534 2.653467,5.04741 3.966797,7.37109 1.60244,2.83523 3.107387,5.35525 4.242187,7.21875 0.539881,-0.29372 1.072465,-0.6005 1.597657,-0.91992 -1.12788,-1.85176 -2.632495,-4.37086 -4.234375,-7.20508 -0.74694,-1.32157 -1.512932,-2.71568 -2.269532,-4.13086 l 1.632813,-0.45898 c 0,0 -0.15124,-0.47881 -0.53125,-0.99024 -0.38001,-0.51141 -1.013157,-1.14757 -2.029297,-1.76172 -0.30311,-0.1832 -0.643408,-0.36494 -1.017578,-0.54101 -1.80994,-3.61689 -3.389903,-7.17543 -4.251953,-10.02149 -0.36301,-1.19847 -0.698205,-2.51761 -1.015625,-3.91211 0.0421,0.0488 0.0059,-0.0176 0.0059,-0.0176 l 1.765625,-0.52929 c 0,0 -0.120204,-0.32928 -0.339844,-0.60742 -0.21966,-0.27814 -0.566893,-0.60103 -1.089843,-0.89844 -0.24719,-0.14059 -0.534625,-0.27682 -0.865235,-0.40235 -1.412103,-7.16053 -2.329141,-15.98184 -2.898437,-23.68359 -0.542883,-7.34445 -0.778445,-13.61388 -0.869141,-16.587889 -0.330502,-0.02084 -0.661258,-0.03855 -0.992187,-0.05078 z M 49,114.01758 c 3.63e-4,0.004 -1.74e-4,0.01 0,0.0137 0.550309,7.44501 1.408111,15.90563 2.759766,23.04297 -0.802957,-0.12869 -1.753636,-0.20975 -2.886719,-0.21875 -1.019075,-0.008 -1.877104,0.0487 -2.619141,0.15039 1.343826,-7.12341 2.195538,-15.55269 2.744141,-22.97461 4.52e-4,-0.004 0.0018,-0.01 0.002,-0.0137 z m -0.140625,24.68164 c 1.43405,0.0114 2.499446,0.14844 3.291016,0.33008 0.412279,1.95886 0.862764,3.79871 1.363281,5.45117 0.77127,2.54634 2.036352,5.52195 3.507812,8.57812 -2.02641,-0.55672 -4.711942,-0.94461 -8.283203,-0.97461 -3.253796,-0.0274 -5.738875,0.27537 -7.652343,0.75391 1.426313,-2.97834 2.647751,-5.87257 3.40039,-8.35742 0.507732,-1.67628 0.965955,-3.54634 1.382813,-5.53711 0.735275,-0.15023 1.702301,-0.25434 2.990234,-0.24414 z m -0.712891,19.87305 c -6.095743,0.0694 -9.560215,3.6162 -11.302734,7.09179 -1.11751,2.22899 -1.600986,4.45625 -1.808594,5.82617 0.585261,0.23109 1.175601,0.4485 1.771485,0.65039 0.14863,-1.15095 0.560112,-3.40563 1.685547,-5.65039 1.547339,-3.08629 4.248498,-6.03022 9.671874,-6.07812 0.174949,-0.001 0.352536,0.001 0.533204,0.006 5.79406,0.14663 8.815697,3.25139 10.554687,6.41406 1.14449,2.08145 1.659823,4.1285 1.882813,5.30078 0.592066,-0.1829 1.179183,-0.38029 1.761718,-0.59179 -0.27454,-1.33938 -0.850366,-3.45161 -2.029296,-5.59571 -1.94392,-3.53539 -5.667184,-7.20576 -12.123047,-7.36914 -0.202145,-0.004 -0.401021,-0.007 -0.597657,-0.004 z M 32.623047,170.4375 c 0.68784,0.3328 1.385374,0.64654 2.091797,0.9375 -0.706419,-0.29113 -1.403951,-0.60486 -2.091797,-0.9375 z" />
  </g>
</svg>
